<svg xmlns="http://www.w3.org/2000/svg" version="1" width="420" height="150"><style>.style0{fill:#bdbaba;fill-rule:nonzero}.style1,.style2{stroke:#000;stroke-width:4.96799994}.style1{fill-rule:nonzero;fill:#fff}.style2{fill:none}.style3{fill:#000}</style><path d="M101.6 73.1H34.8c-10.3 0-18.6 7.1-18.6 15.9v16.7c0 8.8 8.3 15.9 18.6 15.9h66.8M319.4 73.1h65.8c10.3 0 18.6 7.1 18.6 15.9v16.7c0 8.8-8.3 15.9-18.6 15.9h-65.9M187.8 121.5l2.5-14.5-56.9-.1.2 14.7 54.2-.1z" class="style0"/><path d="M188.4 99.9c0 4.8-3.9 8.7-8.6 8.7h-46.3v22.9c0 4.8-3.9 8.7-8.7 8.7h-13.4c-4.8 0-8.7-3.9-8.7-8.7V54.7c0-4.8 3.9-8.7 8.7-8.7h68.4c4.7 0 8.6 3.9 8.6 8.7v45.2zM274.6 54.7c0-4.8 3.9-8.7 8.7-8.7h27c4.8 0 8.7 3.9 8.7 8.7v76.8c0 4.8-3.9 8.7-8.7 8.7h-27c-4.8 0-8.7-3.9-8.7-8.7V54.7z" class="style1"/><path d="M265.9 77.4c4.8 0 8.7 3.9 8.7 8.7v45.4c0 4.8-3.9 8.7-8.7 8.7h-68.8c-4.8 0-8.7-3.9-8.7-8.7v-14.2c0-4.8 3.9-8.7 8.7-8.7h50.7-50.7c-4.8 0-8.7-3.9-8.7-8.7V54.7c0-4.8 3.9-8.7 8.7-8.7h68.8c4.8 0 8.7 3.9 8.7 8.7v14.1c0 4.8-3.9 8.6-8.7 8.6h-50.2 50.2z" class="style1"/><path d="M130.7 77.4h29.4" class="style2"/><path d="M33.8 29.4v-9.6c4.5.1 6.2-1.9 6.2-6.4 0-5.5-3.2-5.8-5.7-5.8h-3.5v21.8h3zm.4-19.3c2.1 0 2.7 1.7 2.7 3.6 0 2.4-.7 3.8-3.1 3.6v-7.2h.4zM51 7.6l-4.8 21.8h2.9l.8-4.2h4.3l.9 4.2h2.8L53.2 7.6H51zm2.8 15.3h-3.5l1.8-11.1 1.1 8 .6 3.1zM66.5 7.6v15.1c0 3.9.5 7.1 5 7.1 5.1 0 5-3.9 5-6.7V7.6h-2.9v16.3c0 1.9-.1 3.1-2.1 3.1-1.2 0-2-.6-2-3.4v-16h-3zM86.7 7.6v21.8h7.8v-2.5h-4.9V7.6h-2.9zM119.4 8.1c-.9-.6-1.9-.8-3.1-.8-3.2 0-4.8 2.6-4.8 5.6 0 5.7 6 6.6 6 11 0 1.6-.7 3-2.5 3-1.1 0-2-.5-2.8-1.1v2.9c.8.7 2 1.1 3.1 1.1 3.2 0 5.2-2.7 5.2-5.8 0-2.9-1.2-4.4-3.2-6.4l-2.1-2.3c-.6-.8-.9-1.5-.9-2.4 0-1.5 1-2.8 2.6-2.8 1 0 1.8.3 2.5.9V8.1zM138 7.9c-.8-.4-1.5-.6-2.5-.6-5.9 0-6.5 7.2-6.5 11.6 0 4.5.8 10.9 6.7 10.9.9 0 1.6-.2 2.3-.7v-2.5c-.5.3-1.1.4-1.7.4-4 0-4.2-5.4-4.2-8.3 0-2.8 0-8.6 4.1-8.6.6 0 1.2.2 1.8.5V7.9zM146.9 7.6v21.8h3V18.6h4.3v10.8h2.9V7.6h-2.9v8.5h-4.3V7.6h-3zM167.3 7.6v21.8h7.8v-2.5h-4.9v-7.4h4.3V17h-4.3v-6.9h4.9V7.6h-7.8zM184 29.4h2.9V18.8l4 10.6h3l-4-10.6c2.4-.4 3-3.5 3-5.6 0-5.4-3.3-5.6-5.4-5.6H184v21.8zm2.9-12.1v-7.2h.5c2.1-.1 2.4 1.7 2.4 3.7 0 2.3-.8 3.6-2.9 3.5zM202.7 29.4h2.9V18.8l4 10.6h3l-4-10.6c2.4-.4 3-3.5 3-5.6 0-5.4-3.3-5.6-5.4-5.6h-3.5v21.8zm2.9-12.1v-7.2h.5c2.2-.1 2.4 1.7 2.4 3.7 0 2.3-.7 3.6-2.9 3.5zM221.4 7.6v21.8h7.8v-2.5h-4.9v-7.4h4.4V17h-4.4v-6.9h4.9V7.6h-7.8zM238.1 29.4h2.9V18.8l4 10.6h3l-4-10.6c2.4-.4 3-3.5 3-5.6 0-5.4-3.3-5.6-5.4-5.6h-3.5v21.8zm2.9-12.1v-7.2h.5c2.2-.1 2.4 1.7 2.4 3.7 0 2.3-.7 3.6-2.9 3.5zM270 7.6h-2.9v21.8h2.9V7.6zM282.5 12.7l.1-.1 5 16.8h2.7V7.6h-2.9v7.8l.7 8.7v.1L283 7.6h-2.8v21.8h2.9v-8l-.4-7.3-.2-1.4zM307.3 8.1c-1-.6-2-.8-3.1-.8-3.2 0-4.9 2.6-4.9 5.6 0 5.7 6.1 6.6 6.1 11 0 1.6-.8 3-2.5 3-1.1 0-2-.5-2.9-1.1v2.9c.9.7 2.1 1.1 3.2 1.1 3.2 0 5.1-2.7 5.1-5.8 0-2.9-1.1-4.4-3.1-6.4l-2.2-2.3c-.5-.8-.8-1.5-.8-2.4 0-1.5 1-2.8 2.6-2.8 1 0 1.7.3 2.5.9V8.1zM315.6 7.6v2.5h3.4v19.3h2.9V10.1h3.2V7.6h-9.5zM336.4 7.6h-3v21.8h3V7.6zM344.7 7.6v2.5h3.4v19.3h2.9V10.1h3.2V7.6h-9.5zM362.6 7.6v15.1c0 3.9.4 7.1 5 7.1 5 0 5-3.9 5-6.7V7.6h-2.9v16.3c0 1.9-.2 3.1-2.2 3.1-1.2 0-2-.6-2-3.4v-16h-2.9zM380.9 7.6v2.5h3.4v19.3h2.9V10.1h3.2V7.6h-9.5z" class="style3"/></svg>