<?xml version="1.0" encoding="utf-8"?>
<!-- Generator: Adobe Illustrator 21.1.0, SVG Export Plug-In . SVG Version: 6.00 Build 0)  -->
<svg version="1.1"
	 id="Layer_1" xmlns:inkscape="http://www.inkscape.org/namespaces/inkscape" xmlns:ns1="http://www.inkscape.org/namespaces/inkscape" xmlns:sketch="http://www.bohemiancoding.com/sketch/ns" xmlns:sodipodi="http://sodipodi.sourceforge.net/DTD/sodipodi-0.dtd"
	 xmlns="http://www.w3.org/2000/svg" xmlns:xlink="http://www.w3.org/1999/xlink" x="0px" y="0px" viewBox="0 0 1000 1000"
	 style="enable-background:new 0 0 1000 1000;" xml:space="preserve">
<style type="text/css">
	.st0{fill:#74D14C;}
	.st1{fill:#5D91BC;}
	.st2{fill:#448F8D;}
	.st3{fill:#5C8FBC;}
	.st4{fill:#74D14D;}
	.st5{fill:#5D90BC;}
	.st6{fill:#5D90BD;}
	.st7{fill:#FFFFFF;}
	.st8{fill:#F2AF58;}
	.st9{fill:#C69BD7;}
	.st10{fill:#C589B0;}
	.st11{fill:#F5C17D;}
</style>
<path class="st0" d="M273.6,465.7c5.4-1.8,10.7-4,15.6-6.9c7.9-4.6,14.4-10.6,19.8-17.9c1.7-2.3,3.3-4.8,4.9-7.2
	c5.7-8.7,13.6-14.1,23.9-15.6c19.1-2.6,34.3,9.7,38.2,25.8c4.4,18.2-6.8,37.3-26.6,41.4c-1.7,0.4-3.5,0.5-5.3,0.7
	c-10,1-19.6,3.4-28.5,8.2c-3,1.6-5.7,3.7-8.5,5.7c-1.6,0.3-2.5-0.9-3.4-1.8c-5.2-4.8-10-10.1-13.4-16.3c-3.8-7-9.4-12-16.5-15.5
	C273.6,466.2,273.5,465.9,273.6,465.7z"/>
<path class="st1" d="M307.1,500.4c4.5,3.5,9.2,6.5,14.3,8.8c6.2,2.8,12.7,4.5,19.3,5.6c2.7,0.4,5.4,0.6,8.1,1.4
	c12.9,3.7,21.3,12,24.6,24.9c4.1,15.7-3.9,31.9-18.1,38.8c-16.6,8.1-35.7,1.6-44.5-13.4c-4-6.8-8.4-13.2-14.2-18.7
	c-5.7-5.5-12.2-9.8-19.8-12.4c-1-0.4-2.1-0.6-3.2-0.8c-0.1-0.3,0-0.5,0.2-0.6c7.7-3.3,13.6-8.5,17.8-15.7c3.5-6,7.6-11.7,12.8-16.4
	C305.3,501.1,305.8,499.9,307.1,500.4z"/>
<path class="st2" d="M307.1,500.4c-0.8,0.2-1.2,0.9-1.8,1.4c-4.5,4.2-8.2,9.1-11.5,14.2c-1,1.6-1.9,3.2-3,4.7
	c-2.5,3.6-5.2,6.9-8.9,9.3c-1.9,1.3-3.8,2.5-5.9,3.5c-0.8,0.4-1.5,0.7-2.4,0.7c-3,0.5-5.8-0.7-8.7-1.2c-4.5-0.8-9.2-0.9-13.6-2.1
	c-9.5-2.7-16.9-8.1-21.4-17.1c-0.8-1.9-1.5-3.9-1.9-6c-4-19.3,10.5-38.9,32.6-40.3c2.7-0.2,5.4-0.6,8.1-1.3c1.6-0.4,3.3-0.9,5,0
	c0.7-0.1,1.3,0.2,1.9,0.5c6,3.3,11,7.6,14.4,13.7c3.8,6.8,8.7,12.6,14.4,17.7c0.8,0.7,1.8,1.3,2.7,1.9
	C307.1,500.1,307.1,500.2,307.1,500.4z"/>
<path class="st3" d="M687.3,501.5c0-3.7,0-7.3,0-11c0-0.4,0-0.9,0-1.3c0-0.6-0.3-1-1-1c-1.2,0-2.4,0-3.6-0.1c-0.6,0-1-0.3-1-0.9
	c0-0.4,0-0.9,0-1.3c0.1-4.4-0.6-3.9,3.7-3.9c0.3,0,0.7,0,1,0c0.5-0.1,0.8-0.3,0.8-0.8c0-0.9,0-1.7,0.1-2.6c0-2.3,0-4.6,0-6.9
	c0-1.5,0.1-1.5,1.7-1.6c1.9,0,3.8,0,5.6,0c1.7,0,1.8,0.1,1.8,1.9c0,2.5,0,4.9,0,7.4c0,2.6-0.1,2.5,2.5,2.5c1.1,0,2.2,0,3.3,0.1
	c0.5,0,0.7,0.4,0.8,0.8c0,0.3,0,0.5,0,0.8c-0.1,5.2,0.8,4.4-4.2,4.5c-2.5,0-2.5,0-2.5,2.5c0,6.7,0,13.5,0,20.2c0,0.9,0,1.7,0.1,2.6
	c0.3,2.6,1.6,4.2,4.1,4.9c1,0.3,2,0.3,3,0.4c0.9,0.1,1.1,0.3,1.2,1c0,1.2,0,2.4,0,3.6c0,0.6-0.3,0.9-0.9,1c-3.2,0.5-6.5,0.5-9.7-0.1
	c-1.9-0.4-3.4-1.4-4.5-3.1c-1.7-2.7-2.4-5.7-2.4-8.8C687.3,508.9,687.4,505.2,687.3,501.5C687.4,501.5,687.4,501.5,687.3,501.5z"/>
<path class="st3" d="M621.2,490.3c0,6.6,0,13.3,0,19.9c0,1,0,2,0.1,3.1c0.2,2.8,1.6,4.3,4.2,5.1c1.1,0.3,2.2,0.3,3.3,0.4
	c0.6,0,1,0.4,1,1c0,1.4,0.3,2.9-0.2,4.3c-1.2,0.6-2.5,0.5-3.7,0.7c-2.2,0.2-4.4,0-6.6-0.4c-1.9-0.3-3.5-1.4-4.5-3
	c-1.6-2.4-2.3-5.1-2.6-7.9c-0.1-1.1-0.1-2.2-0.1-3.3c0-13.7,0-27.4,0-41.2c0-3-0.2-2.8,2.7-2.8c1.7,0,3.4,0,5.1,0
	c1.1,0,1.3,0.2,1.3,1.4c0,0.6,0,1.2,0,1.8C621.2,476.3,621.2,483.3,621.2,490.3z"/>
<path class="st3" d="M644.6,491.6c-1-1.6-2-3-2.9-4.4c-0.3-0.4-0.2-0.8,0.2-1.1c0.5-0.4,0.9-0.7,1.5-1c5.6-3,11.6-4,17.8-2.5
	c4.2,1,7,3.8,7.9,8.1c0.5,2.3,0.9,4.7,0.9,7.1c0,4.5,0.1,9,0.1,13.6c0,1.5,0.1,3.1,0.4,4.6c0.2,1.1,0.5,2.2,1.3,3
	c0.5,0.5,0.6,1,0.3,1.6c-0.5,1-0.9,2-1.5,3c-0.5,1-0.9,1.2-2.1,0.7c-1.8-0.7-3.2-1.9-4.4-3.4c-0.3-0.5-0.6-1-1-1.6
	c-0.7,0.7-1.2,1.4-1.9,2c-0.7,0.6-1.5,1.1-2.3,1.6c-0.6,0.3-1.2,0.6-1.9,0.8c-1.6,0.6-1.8,0.5-1.8-1.2c0-0.3,0-0.7,0-1
	c-0.3-1.9,0.2-3.3,2.3-3.8c0.8-0.2,1.4-0.9,2.1-1.5c1-0.8,1.4-1.8,1.4-3.1c-0.1-5.8,0-11.6-0.1-17.4c0-1.4-0.1-2.7-0.5-4
	c-0.6-2.2-2.1-3.2-4.2-3.4c-3.3-0.4-6.4,0.4-9.3,2.1C646.1,490.6,645.5,491.1,644.6,491.6z"/>
<path class="st3" d="M447.8,491.5c-1.3-1.3-2.1-2.9-3.1-4.4c-0.3-0.4-0.1-0.8,0.3-1.1c0.6-0.5,1.2-0.9,1.9-1.3
	c5.4-2.7,11.2-3.6,17.1-2.2c4.6,1.1,7.3,4.1,8.2,8.8c0.6,3.4,0.8,6.8,0.9,10.2c0.1,4,0,8,0.1,12c0,1.2,0.1,2.4,0.5,3.5
	c0.2,0.6,0.4,1.2,0.7,1.6c0.8,0.8,0.8,1.6,0.3,2.5c-0.5,0.8-0.8,1.7-1.3,2.5c-0.4,0.8-0.8,1-1.6,0.7c-1.8-0.5-3.2-1.6-4.4-3
	c-0.3-0.4-0.5-0.9-0.8-1.3c-0.4-0.7-0.7-0.8-1.1-0.2c-1.4,1.9-3.5,3-5.6,3.8c-0.2,0.1-0.5,0.2-0.7,0.2c-0.4,0.1-0.8-0.1-0.8-0.4
	c-0.1-1.4,0-2.9,0-4.3c0-0.5,0.4-0.7,0.8-0.9c1.4-0.6,2.7-1.4,3.8-2.5c0.8-0.8,1.1-1.6,1.1-2.7c-0.1-5.5,0-10.9,0-16.4
	c0-1.5-0.2-2.9-0.5-4.3c-0.5-2.7-2-3.9-4.7-4.2c-3.4-0.3-6.6,0.5-9.5,2.4C448.9,490.9,448.4,491.2,447.8,491.5z"/>
<path class="st3" d="M564.5,497.2c0-4.1,0-8.2,0-12.3c0-0.6,0-1.2,0-1.8c0-0.6,0.3-1,0.9-1c2.4,0,4.8,0,7.2,0c0.7,0,1,0.4,1.1,1.2
	c0,0.7,0,1.4,0,2c0,7.2,0,14.5,0,21.7c0,1.8,0.1,3.6,0.5,5.3c0.3,0.9,0.6,1.8,1.1,2.6c1.1,1.7,2.7,2.8,4.8,2.9
	c1.4,0,2.7,0.1,4.1-0.3c0.7-0.2,1.3-0.3,2-0.5c0.7-0.1,1,0.1,0.9,0.8c-0.1,5.1,1,4.3-4.1,6.2c-4.7,1.8-8.9,0.9-12.9-2.2
	c-3.7-2.9-5.4-6.7-5.6-11.3C564.4,506.1,564.5,501.6,564.5,497.2C564.5,497.2,564.5,497.2,564.5,497.2z"/>
<path class="st3" d="M753.5,502.9c0,5.9-1.4,10.8-4.7,15c-2.9,3.7-6.7,5.7-11.2,6.6c-0.4,0.1-0.9,0.1-1.3,0.1
	c-0.4,0-0.7-0.2-0.7-0.6c0-2,0-3.9,0-5.9c0-0.4,0.3-0.6,0.7-0.7c4.9-1.9,6.7-6,7.5-10.8c0.5-3.2,0.2-6.3-0.6-9.4
	c-0.6-2.2-1.6-4.1-3.2-5.8c-1-1.1-2.2-1.8-3.6-2.3c-0.6-0.2-0.8-0.6-0.8-1.1c0-1.6,0-3.2,0-4.9c0-1,0.3-1.2,1.3-1.1
	c3,0.4,5.8,1.4,8.3,3.1c3.3,2.3,5.4,5.4,6.8,9.1C753,497.3,753.6,500.4,753.5,502.9z"/>
<path class="st3" d="M732.4,485.7c0,0.3,0,0.7,0,1c0.1,1.4-0.1,2.4-1.7,2.9c-1.8,0.6-3,2.1-4.1,3.8c-1.3,2.1-2.1,4.5-2.3,7
	c-0.4,3.4-0.1,6.8,1.1,10.1c1.1,3.2,2.8,5.8,6.3,6.9c0.5,0.1,0.7,0.5,0.7,0.9c0,1.8,0,3.6,0,5.4c0,0.6-0.3,0.9-1,0.8
	c-3.3-0.2-6.1-1.5-8.7-3.4c-4.2-3.1-6.5-7.4-7.5-12.4c-1.1-5-0.7-9.8,1.2-14.6c2.7-6.8,7.8-10.7,15-12c0.7-0.1,1,0.1,1,0.8
	C732.4,483.8,732.4,484.8,732.4,485.7C732.4,485.7,732.4,485.7,732.4,485.7z"/>
<path class="st3" d="M415.6,485.8c0,0.4-0.1,0.9,0,1.3c0.2,1.6-0.3,2.5-1.9,3c-1.8,0.7-3,2.2-4,3.8c-2,3.4-2.6,7.2-2.2,11.1
	c0.1,1.8,0.4,3.5,1.1,5.2c1.1,3.1,2.8,5.6,6,6.8c0.6,0.2,1,0.6,1,1.3c0,1.8,0,3.6,0,5.4c0,0.5-0.3,0.8-0.8,0.8
	c-0.8,0-1.5-0.1-2.3-0.2c-5.8-1.4-9.8-5-12.3-10.2c-1.4-2.9-2.1-5.9-2.2-9.1c-0.1-3.7,0.1-7.3,1.6-10.8c2.8-6.6,7.6-10.7,14.8-12
	c0.9-0.2,1.2,0.1,1.3,1C415.6,484.1,415.6,484.9,415.6,485.8C415.6,485.8,415.6,485.8,415.6,485.8z"/>
<path class="st3" d="M519.8,503.7c-0.1-5.1,0.9-9.5,3.5-13.3c3.1-4.6,7.4-7.4,12.9-8.3c0.8-0.1,1.1,0.1,1.2,0.9c0,1.8,0,3.6,0,5.4
	c0,0.6-0.3,0.9-0.8,1.1c-4,1.5-5.8,4.8-6.8,8.7c-1,3.9-0.8,7.8,0.5,11.6c1.1,3.3,2.8,6,6.3,7.3c0.5,0.2,0.9,0.5,0.9,1.1
	c0,1.8,0,3.6,0,5.4c0,0.7-0.3,1-1.2,0.9c-1.7,0-3.4-0.5-4.9-1.2c-4.3-1.9-7.4-5.1-9.4-9.4C520.4,510.5,519.7,507,519.8,503.7z"/>
<path class="st3" d="M774.4,505c0,5.5,0,10.9,0,16.4c0,0.6,0,1.2,0,1.8c-0.1,1.1-0.2,1.3-1.4,1.3c-2.1,0-4.3,0-6.4,0
	c-1.1,0-1.3-0.2-1.3-1.4c0-0.4,0-0.9,0-1.3c0-12.4,0-24.7,0-37.1c0-2.7-0.1-2.6,2.7-2.6c1.4,0,2.9,0,4.3,0c0.7,0,1.1,0.3,1.3,1
	c0.4,1.6,0.9,3.3,0.8,5C774.3,493.8,774.4,499.4,774.4,505z"/>
<path class="st3" d="M599.4,503.2c0,6.3,0,12.6,0,18.9c0,2.3,0,2.3-2.2,2.3c-1.6,0-3.2,0-4.9,0c-0.7,0-1.1-0.3-1.2-1
	c-0.5-2-0.9-4-0.9-6c0-10.8,0-21.6,0-32.5c0-2.9,0-2.9,2.8-2.8c1.8,0,3.6,0,5.4,0c0.6,0,1,0.3,1,0.9c0,0.7,0,1.4,0,2
	C599.4,491.1,599.4,497.2,599.4,503.2z"/>
<path class="st3" d="M487.6,503c0-5.8,0-11.6,0-17.4c0-0.6,0-1.2,0-1.8c0-1.6,0.1-1.7,1.8-1.7c1.6,0,3.2,0,4.9,0
	c1.2,0,1.3,0.2,1.6,1.2c0.4,1.6,0.7,3.2,0.7,4.8c0,11.3,0,22.5,0,33.8c0,2.6,0,2.5-2.5,2.5c-1.8,0-3.6,0-5.4,0c-0.6,0-1-0.3-1-0.9
	c0-0.7,0-1.4,0-2C487.6,515.3,487.6,509.2,487.6,503z"/>
<path class="st1" d="M273.7,466.1c-2.3-0.1-4.5,0.7-6.8,1.1c-2.3,0.4-4.5,1-6.8,0.9c-1.3-0.1-2.5,0.4-3.8,0.6
	c-4.8,0.8-9.3,2.6-13.4,5.3c-5.8,3.8-9.9,9-12.5,15.4c-1.1,2.6-1.6,5.4-2.3,8.1c-0.2,0.7-0.1,1.4-0.1,2c0,2.7,0,5.5-0.1,8.2
	c-0.9-1.4-1.1-3-1.3-4.6c-1.2-6.6-0.4-13.1,2.3-19.2c4.9-11.1,13.5-17.7,25.3-20.2c5.7-1.2,11.4-0.6,16.9,1.2
	c0.8,0.3,1.6,0.5,2.4,0.8C273.6,465.8,273.7,466,273.7,466.1z"/>
<path class="st3" d="M657.8,501.4c0,0.1,0,0.2,0,0.3c0,2.3,0,2.3-2.2,2.3c-1.7,0-3.4,0.3-4.9,1.1c-2.4,1.2-3.8,3.1-3.8,5.9
	c0,0.8,0,1.5,0,2.3c0.2,2.4,1.3,4.3,3.7,5c1.3,0.4,1.6,1,1.5,2.2c-0.1,1.2,0,2.4-0.1,3.6c0,0.5-0.4,0.8-0.8,0.8
	c-3-0.1-6-0.6-8.5-2.4c-2.4-1.7-3.6-4.2-4.2-7.1c-0.3-1.9-0.5-3.7-0.1-5.6c0.7-4,2.9-6.8,6.4-8.8c2.1-1.2,4.4-1.9,6.8-2.1
	c1.7-0.1,3.4-0.1,5.1-0.1c0.8,0,1,0.3,1.1,1.1C657.8,500.4,657.8,500.9,657.8,501.4C657.8,501.4,657.8,501.4,657.8,501.4z"/>
<path class="st3" d="M456.2,498.7c5.3,0,4.7-0.5,4.8,3.7c0,0.1,0,0.2,0,0.3c-0.1,1.1-0.2,1.2-1.2,1.3c-0.4,0-0.9,0-1.3,0
	c-1.2,0-2.4,0.2-3.5,0.6c-3.2,0.9-5.1,3.4-5.2,6.8c0,0.8,0.1,1.7,0.2,2.5c0.4,2.3,1.7,3.9,4,4.5c0.9,0.2,1.3,0.7,1.3,1.6
	c0,1.3,0,2.6,0,3.8c0,0.6-0.4,1-1,1c-6.3-0.1-11.7-2.7-12.7-10c-0.1-1-0.1-2-0.1-3.1c-0.1-4.8,2.3-8.3,6.3-10.6
	C450.7,499.4,454,498.7,456.2,498.7z"/>
<path class="st4" d="M230,513.7c0.6,0.1,0.8,0.6,1,1.1c1.2,1.9,2.5,3.6,3.9,5.3c1.9,2.3,4.3,4.1,6.8,5.7c4.2,2.8,8.8,4.4,13.7,5.2
	c1.5,0.2,3,0.4,4.5,0.5c4.6,0.6,9.2,1.5,13.7,2.6c0,0.1,0,0.2,0,0.3c-3.4,1.3-6.9,1.9-10.5,2c-4.3,0.2-8.5-0.5-12.5-2
	c-9.3-3.5-16.1-9.8-20-18.9C230.3,515,230.2,514.4,230,513.7z"/>
<path class="st5" d="M777.6,491.5c-0.4-2.3-0.1-4.6-0.2-6.7c0-0.7,0.5-1,1.1-1.3c1.8-0.8,3.7-1.2,5.7-1.4c1.3-0.1,2.6-0.1,3.8-0.1
	c0.6,0,1,0.3,1,0.9c0,2.6,0,5.1,0,7.7c0,0.4-0.3,0.7-0.7,0.6C784.8,490.3,781.2,490.6,777.6,491.5z"/>
<path class="st5" d="M511.2,486.8c0,0.7,0,1.4,0,2c0,2.3,0,2.2-2.4,2c-2.7-0.3-5.4-0.2-8.1,0.5c-0.9,0.2-1.1,0.1-1.2-0.8
	c0-1.8,0-3.6,0-5.4c0-0.9,0.4-1.4,1.2-1.7c3.1-1.3,6.2-1.7,9.5-1.5c0.6,0,0.9,0.4,0.9,1C511.2,484.2,511.2,485.5,511.2,486.8
	C511.2,486.8,511.2,486.8,511.2,486.8z"/>
<path class="st5" d="M418.7,485.4c0-0.6,0-1.2,0-1.8c0-1.5,0.2-1.7,1.9-1.4c3.7,0.5,6.8,2,9.4,4.7c0.2,0.2,0.5,0.5,0.7,0.8
	c0.3,0.4,0.4,0.8,0.1,1.2c-1,1.2-2.1,2.5-3.1,3.7c-0.1,0.1-0.5,0.1-0.7,0.1c-0.1,0-0.2-0.1-0.2-0.1c-2-1.8-4.4-2.9-7.1-3.3
	c-0.6-0.1-0.9-0.4-0.9-1C418.7,487.3,418.7,486.4,418.7,485.4C418.7,485.4,418.7,485.4,418.7,485.4z"/>
<path class="st5" d="M540.5,485.4c0-0.8,0-1.5,0-2.3c0-0.8,0.4-1.1,1.1-1.1c4.1,0.5,7.7,2,10.5,5.2c0.8,0.9,0.8,1.1,0.1,2
	c-0.3,0.3-0.5,0.7-0.8,1c-0.7,0.8-1.5,1.6-2.2,2.5c-1.2-0.1-1.8-1.1-2.7-1.7c-1.3-0.7-2.6-1.2-4-1.5c-1.9-0.4-1.9-0.4-1.9-2.5
	C540.5,486.5,540.5,485.9,540.5,485.4C540.5,485.4,540.5,485.4,540.5,485.4z"/>
<path class="st5" d="M427.1,513.9c0.9,1.3,1.9,2.7,2.8,4.1c0.2,0.3,0.2,0.6,0,0.9c-2.6,3.2-5.8,5.3-9.9,5.6c-1,0.1-1.3-0.2-1.3-1.1
	c0-0.3,0-0.7,0-1c0-0.9,0-1.7,0-2.6c0-2.8-0.2-2.3,2.4-3c1.5-0.4,2.8-1.2,4.1-1.9C425.8,514.6,426.2,514.1,427.1,513.9z"/>
<path class="st6" d="M548.9,513.9c1.2,1.5,2.3,3,3.2,4.7c-2.1,2.8-4.6,4.8-8,5.6c-0.6,0.1-1.2,0.3-1.8,0.3c-1.6,0.2-1.8,0-1.8-1.6
	c0-1.4,0-2.7,0-4.1c0-1.3,0-1.4,1.2-1.6c2.3-0.5,4.3-1.5,6.2-2.9C548.2,514.1,548.5,514,548.9,513.9z"/>
<path class="st7" d="M342.5,475c-12.7,0-23.1-10.9-22.8-23.6c0.3-12.7,10.8-22.9,23.5-22.6c13.6,0.3,22.9,11.7,22.7,23.5
	C365.8,464.6,355.4,475.3,342.5,475z"/>
<path class="st7" d="M340.3,572.3c-12.3,0.3-23.1-10-23.1-23c-0.1-12,9.5-23.2,23.3-23.2c13.4,0,23,11.2,23,23.2
	C363.4,560.9,353.7,572.5,340.3,572.3z"/>
<path class="st7" d="M282.4,491.2c0.3,1,0.7,2.1,1,3.1c3.3,11.1-6.9,26.2-21.7,26.8c-9.1,0.4-16.2-3.1-21.1-10.9
	c-0.3-0.5-0.4-1.1-0.7-1.6c-0.4-1.1-0.7-2.3-1.1-3.4c-3.1-10.8,7.3-25.7,21-26.4c5.2-0.3,10,0.6,14.4,3.3
	C278,484.2,280.9,487.1,282.4,491.2z"/>
<path class="st0" d="M282.4,491.2c-0.5-0.7-1-1.4-1.5-2.1c-3.7-5.3-8.8-8.6-15.1-9.5c-14.2-2.2-24.3,7.7-26.5,18.2
	c-0.5,2.5-0.4,4.9-0.5,7.4c-1-1.5-1.3-3.3-1.5-5.1c-0.2-2.9-0.2-5.8,0.5-8.6c0.7-2.8,2.1-5.4,3.7-7.8c3.6-5.1,8.6-8.3,14.7-9.2
	c6.9-1.1,13.3,0.4,18.8,5.1c3.3,2.8,5.6,6.1,7,10.1C282.3,490.1,282.3,490.7,282.4,491.2z"/>
<path class="st1" d="M239.9,508.5c1.2,1.4,2.1,3.1,3.4,4.4c3.7,3.9,8.2,6.5,13.5,7.2c6.9,1,13.2-0.7,18.6-5.3
	c4.1-3.6,6.7-8.1,7.8-13.5c0.2-1.1,0.3-2.2,0.3-3.3c0-1.3,0-2.6,0-3.8c1,1.7,1.4,3.6,1.5,5.6c0.1,1.3,0,2.6,0,3.8
	c0,5.5-2.2,10.1-5.8,14c-2.1,2.3-4.3,4.3-7.2,5.6c-3.8,1.7-7.8,2.6-11.9,2.1c-4.4-0.5-8.3-2-12-4.7c-3.9-2.8-6.2-6.7-8-11
	C239.9,509.4,239.9,509,239.9,508.5z"/>
<path class="st8" d="M353.9,451.1c-0.6,7.1-6,11.5-11.9,11.2c-7.4-0.3-11.5-6.2-11.3-11.9c0.3-7,5.7-11.4,11.9-11.2
	C349.8,439.5,353.8,445.3,353.9,451.1z"/>
<path class="st9" d="M352,549.1c0,6.3-5.2,11.6-11.6,11.5c-7.5-0.1-11.5-6.1-11.5-11.5c0-5.9,4.1-11.5,11.4-11.6
	C347.3,537.4,352,542.7,352,549.1z"/>
<path class="st10" d="M250.2,502.5c-0.1-0.3-0.1-0.7-0.2-1c-1.8-4.6,4.3-11.4,9.9-12c4.8-0.5,11.3,2,12.1,7.2c0,0.2,0.1,0.3,0.1,0.5
	c0.6,4.2-1.7,8.1-6.1,10.5C260.1,511,252.8,508.6,250.2,502.5z"/>
<path class="st11" d="M250.2,502.5c0.7,0.8,1.4,1.7,2.2,2.5c2,2.2,4.6,3.1,7.4,3.5c1.7,0.2,3.4-0.2,4.9-0.9c3.7-1.5,6.1-4.2,7-8.1
	c0.2-0.7,0.3-1.5,0.5-2.2c1.8,3.5,1.4,7-0.5,10.2c-3.4,5.7-10.2,7.4-15.7,4.2C252.5,509.7,250.4,506.7,250.2,502.5z"/>
<path class="st9" d="M272.1,496.8c-0.4-0.3-0.4-0.7-0.6-1.1c-2-3.4-5.1-5.1-8.9-5.5c-1.8-0.2-3.6,0-5.2,0.8c-4.4,2.2-7,5.5-7.2,10.6
	c-1.9-3.9-1.2-9,1.6-12.1c2.3-2.6,5.2-3.8,8.8-3.9c4.8-0.2,9.8,3.4,11.1,8.1C271.8,494.6,272.3,495.6,272.1,496.8z"/>
</svg>
